<mxfile host="app.diagrams.net" modified="2020-10-28T06:52:16.638Z" agent="5.0 (Windows NT 10.0; Win64; x64) AppleWebKit/537.36 (KHTML, like Gecko) Chrome/86.0.4240.111 Safari/537.36" etag="7JAqwE1JpZz_Bd5puOvE" version="13.8.5" type="github">
  <diagram id="C5RBs43oDa-KdzZeNtuy" name="Page-1">
    <mxGraphModel dx="2061" dy="689" grid="1" gridSize="10" guides="1" tooltips="1" connect="1" arrows="1" fold="1" page="1" pageScale="1" pageWidth="827" pageHeight="1169" math="0" shadow="0">
      <root>
        <mxCell id="WIyWlLk6GJQsqaUBKTNV-0" />
        <mxCell id="WIyWlLk6GJQsqaUBKTNV-1" parent="WIyWlLk6GJQsqaUBKTNV-0" />
        <mxCell id="WIyWlLk6GJQsqaUBKTNV-2" value="" style="rounded=0;html=1;jettySize=auto;orthogonalLoop=1;fontSize=11;endArrow=block;endFill=0;endSize=8;strokeWidth=1;shadow=0;labelBackgroundColor=none;edgeStyle=orthogonalEdgeStyle;" parent="WIyWlLk6GJQsqaUBKTNV-1" target="WIyWlLk6GJQsqaUBKTNV-6" edge="1">
          <mxGeometry relative="1" as="geometry">
            <mxPoint x="340" y="320" as="sourcePoint" />
            <Array as="points">
              <mxPoint x="340" y="360" />
              <mxPoint x="340" y="360" />
            </Array>
          </mxGeometry>
        </mxCell>
        <mxCell id="WIyWlLk6GJQsqaUBKTNV-6" value="L-E" style="rhombus;whiteSpace=wrap;html=1;shadow=0;fontFamily=Helvetica;fontSize=12;align=center;strokeWidth=1;spacing=6;spacingTop=-4;" parent="WIyWlLk6GJQsqaUBKTNV-1" vertex="1">
          <mxGeometry x="300" y="370" width="80" height="40" as="geometry" />
        </mxCell>
        <mxCell id="znapjY-12_5NC52E_k2u-8" value="Modelo conceptual" style="text;strokeColor=none;fillColor=none;html=1;fontSize=24;fontStyle=1;verticalAlign=middle;align=left;" vertex="1" parent="WIyWlLk6GJQsqaUBKTNV-1">
          <mxGeometry x="-20" width="930" height="40" as="geometry" />
        </mxCell>
        <mxCell id="znapjY-12_5NC52E_k2u-9" value="Préstamo de libros del CETis108" style="text;strokeColor=none;fillColor=none;html=1;fontSize=24;fontStyle=1;verticalAlign=middle;align=center;" vertex="1" parent="WIyWlLk6GJQsqaUBKTNV-1">
          <mxGeometry x="-120" y="40" width="570" height="40" as="geometry" />
        </mxCell>
        <UserObject label="Materia: Construye base de datos para aplicaciones web" placeholders="1" name="Variable" id="znapjY-12_5NC52E_k2u-11">
          <mxCell style="text;html=1;strokeColor=none;fillColor=none;align=center;verticalAlign=middle;whiteSpace=wrap;overflow=hidden;" vertex="1" parent="WIyWlLk6GJQsqaUBKTNV-1">
            <mxGeometry x="-50" y="90" width="330" height="20" as="geometry" />
          </mxCell>
        </UserObject>
        <UserObject label="Profesor: Bidkar Aragón Cárdenas" placeholders="1" name="Variable" id="znapjY-12_5NC52E_k2u-12">
          <mxCell style="text;html=1;strokeColor=none;fillColor=none;align=center;verticalAlign=middle;whiteSpace=wrap;overflow=hidden;" vertex="1" parent="WIyWlLk6GJQsqaUBKTNV-1">
            <mxGeometry x="-120" y="130" width="360" height="20" as="geometry" />
          </mxCell>
        </UserObject>
        <UserObject label="Alumno: María Regina Herrera Meneses" placeholders="1" name="Variable" id="znapjY-12_5NC52E_k2u-13">
          <mxCell style="text;html=1;strokeColor=none;fillColor=none;align=center;verticalAlign=middle;whiteSpace=wrap;overflow=hidden;" vertex="1" parent="WIyWlLk6GJQsqaUBKTNV-1">
            <mxGeometry x="-90" y="170" width="330" height="20" as="geometry" />
          </mxCell>
        </UserObject>
        <UserObject label="Fecha de actualización: 2020-10-25" placeholders="1" name="Variable" id="znapjY-12_5NC52E_k2u-14">
          <mxCell style="text;html=1;strokeColor=none;fillColor=none;align=center;verticalAlign=middle;whiteSpace=wrap;overflow=hidden;" vertex="1" parent="WIyWlLk6GJQsqaUBKTNV-1">
            <mxGeometry x="-80" y="210" width="290" height="20" as="geometry" />
          </mxCell>
        </UserObject>
        <mxCell id="znapjY-12_5NC52E_k2u-19" value="Editoriales" style="whiteSpace=wrap;html=1;align=center;" vertex="1" parent="WIyWlLk6GJQsqaUBKTNV-1">
          <mxGeometry x="290" y="280" width="100" height="40" as="geometry" />
        </mxCell>
        <mxCell id="znapjY-12_5NC52E_k2u-20" value="1:N" style="text;html=1;strokeColor=none;fillColor=none;align=center;verticalAlign=middle;whiteSpace=wrap;rounded=0;" vertex="1" parent="WIyWlLk6GJQsqaUBKTNV-1">
          <mxGeometry x="400" y="380" width="40" height="20" as="geometry" />
        </mxCell>
        <mxCell id="znapjY-12_5NC52E_k2u-21" value="Libros" style="shape=ext;margin=3;double=1;whiteSpace=wrap;html=1;align=center;" vertex="1" parent="WIyWlLk6GJQsqaUBKTNV-1">
          <mxGeometry x="290" y="485" width="100" height="40" as="geometry" />
        </mxCell>
        <mxCell id="znapjY-12_5NC52E_k2u-24" value="" style="endArrow=classic;startArrow=classic;html=1;" edge="1" parent="WIyWlLk6GJQsqaUBKTNV-1">
          <mxGeometry width="50" height="50" relative="1" as="geometry">
            <mxPoint x="465.5" y="509.5" as="sourcePoint" />
            <mxPoint x="390" y="509.5" as="targetPoint" />
          </mxGeometry>
        </mxCell>
        <mxCell id="znapjY-12_5NC52E_k2u-25" value="L-C" style="rhombus;whiteSpace=wrap;html=1;fillColor=#FFFFFF;" vertex="1" parent="WIyWlLk6GJQsqaUBKTNV-1">
          <mxGeometry x="450" y="485" width="70" height="50" as="geometry" />
        </mxCell>
        <mxCell id="znapjY-12_5NC52E_k2u-28" value="" style="endArrow=classic;html=1;exitX=1;exitY=0.5;exitDx=0;exitDy=0;" edge="1" parent="WIyWlLk6GJQsqaUBKTNV-1" source="znapjY-12_5NC52E_k2u-25">
          <mxGeometry width="50" height="50" relative="1" as="geometry">
            <mxPoint x="540" y="540" as="sourcePoint" />
            <mxPoint x="590" y="510" as="targetPoint" />
          </mxGeometry>
        </mxCell>
        <mxCell id="znapjY-12_5NC52E_k2u-29" value="Categorias" style="whiteSpace=wrap;html=1;align=center;" vertex="1" parent="WIyWlLk6GJQsqaUBKTNV-1">
          <mxGeometry x="590" y="490" width="100" height="40" as="geometry" />
        </mxCell>
        <mxCell id="znapjY-12_5NC52E_k2u-30" value="" style="endArrow=classic;html=1;" edge="1" parent="WIyWlLk6GJQsqaUBKTNV-1">
          <mxGeometry width="50" height="50" relative="1" as="geometry">
            <mxPoint x="340" y="410" as="sourcePoint" />
            <mxPoint x="339.5" y="480" as="targetPoint" />
          </mxGeometry>
        </mxCell>
        <mxCell id="znapjY-12_5NC52E_k2u-31" value="" style="endArrow=classic;html=1;" edge="1" parent="WIyWlLk6GJQsqaUBKTNV-1">
          <mxGeometry width="50" height="50" relative="1" as="geometry">
            <mxPoint x="340" y="580" as="sourcePoint" />
            <mxPoint x="339.5" y="530" as="targetPoint" />
          </mxGeometry>
        </mxCell>
        <mxCell id="znapjY-12_5NC52E_k2u-32" value="L-i" style="rhombus;whiteSpace=wrap;html=1;fillColor=#FFFFFF;" vertex="1" parent="WIyWlLk6GJQsqaUBKTNV-1">
          <mxGeometry x="315" y="580" width="50" height="50" as="geometry" />
        </mxCell>
        <mxCell id="znapjY-12_5NC52E_k2u-33" value="" style="endArrow=classic;html=1;" edge="1" parent="WIyWlLk6GJQsqaUBKTNV-1">
          <mxGeometry width="50" height="50" relative="1" as="geometry">
            <mxPoint x="340" y="680" as="sourcePoint" />
            <mxPoint x="339.5" y="630" as="targetPoint" />
          </mxGeometry>
        </mxCell>
        <mxCell id="znapjY-12_5NC52E_k2u-34" value="Inventarios" style="shape=ext;margin=3;double=1;whiteSpace=wrap;html=1;align=center;" vertex="1" parent="WIyWlLk6GJQsqaUBKTNV-1">
          <mxGeometry x="290" y="680" width="100" height="40" as="geometry" />
        </mxCell>
        <mxCell id="znapjY-12_5NC52E_k2u-35" value="" style="endArrow=classic;html=1;" edge="1" parent="WIyWlLk6GJQsqaUBKTNV-1">
          <mxGeometry width="50" height="50" relative="1" as="geometry">
            <mxPoint x="200" y="504.5" as="sourcePoint" />
            <mxPoint x="280" y="504.5" as="targetPoint" />
          </mxGeometry>
        </mxCell>
        <mxCell id="znapjY-12_5NC52E_k2u-36" value="L-A" style="rhombus;whiteSpace=wrap;html=1;fillColor=#FFFFFF;" vertex="1" parent="WIyWlLk6GJQsqaUBKTNV-1">
          <mxGeometry x="132.5" y="480" width="65" height="50" as="geometry" />
        </mxCell>
        <mxCell id="znapjY-12_5NC52E_k2u-37" value="" style="endArrow=classic;html=1;" edge="1" parent="WIyWlLk6GJQsqaUBKTNV-1">
          <mxGeometry width="50" height="50" relative="1" as="geometry">
            <mxPoint x="132.5" y="504.5" as="sourcePoint" />
            <mxPoint x="62.5" y="504.5" as="targetPoint" />
          </mxGeometry>
        </mxCell>
        <mxCell id="znapjY-12_5NC52E_k2u-38" value="Categorias" style="whiteSpace=wrap;html=1;align=center;" vertex="1" parent="WIyWlLk6GJQsqaUBKTNV-1">
          <mxGeometry x="-40" y="485" width="100" height="40" as="geometry" />
        </mxCell>
        <mxCell id="znapjY-12_5NC52E_k2u-39" value="1:1" style="text;html=1;strokeColor=none;fillColor=none;align=center;verticalAlign=middle;whiteSpace=wrap;rounded=0;" vertex="1" parent="WIyWlLk6GJQsqaUBKTNV-1">
          <mxGeometry x="380" y="595" width="40" height="20" as="geometry" />
        </mxCell>
        <mxCell id="znapjY-12_5NC52E_k2u-40" value="N:1" style="text;html=1;strokeColor=none;fillColor=none;align=center;verticalAlign=middle;whiteSpace=wrap;rounded=0;" vertex="1" parent="WIyWlLk6GJQsqaUBKTNV-1">
          <mxGeometry x="465" y="460" width="40" height="20" as="geometry" />
        </mxCell>
        <mxCell id="znapjY-12_5NC52E_k2u-41" value="Escriben" style="text;html=1;strokeColor=none;fillColor=none;align=center;verticalAlign=middle;whiteSpace=wrap;rounded=0;" vertex="1" parent="WIyWlLk6GJQsqaUBKTNV-1">
          <mxGeometry x="210" y="485" width="50" height="20" as="geometry" />
        </mxCell>
        <mxCell id="znapjY-12_5NC52E_k2u-44" value="N:M" style="text;html=1;strokeColor=none;fillColor=none;align=center;verticalAlign=middle;whiteSpace=wrap;rounded=0;" vertex="1" parent="WIyWlLk6GJQsqaUBKTNV-1">
          <mxGeometry x="133" y="450" width="40" height="20" as="geometry" />
        </mxCell>
        <mxCell id="znapjY-12_5NC52E_k2u-45" value="Escritos_por" style="text;html=1;strokeColor=none;fillColor=none;align=center;verticalAlign=middle;whiteSpace=wrap;rounded=0;" vertex="1" parent="WIyWlLk6GJQsqaUBKTNV-1">
          <mxGeometry x="50" y="485" width="110" height="20" as="geometry" />
        </mxCell>
        <mxCell id="znapjY-12_5NC52E_k2u-46" value="&lt;b&gt;Insumos de la biblioteca&lt;/b&gt;" style="text;html=1;strokeColor=none;fillColor=none;align=center;verticalAlign=middle;whiteSpace=wrap;rounded=0;" vertex="1" parent="WIyWlLk6GJQsqaUBKTNV-1">
          <mxGeometry x="35" y="760" width="160" height="20" as="geometry" />
        </mxCell>
        <mxCell id="znapjY-12_5NC52E_k2u-47" value="Grupos" style="whiteSpace=wrap;html=1;align=center;" vertex="1" parent="WIyWlLk6GJQsqaUBKTNV-1">
          <mxGeometry x="-60" y="960" width="100" height="40" as="geometry" />
        </mxCell>
        <mxCell id="znapjY-12_5NC52E_k2u-48" value="" style="endArrow=classic;html=1;" edge="1" parent="WIyWlLk6GJQsqaUBKTNV-1">
          <mxGeometry width="50" height="50" relative="1" as="geometry">
            <mxPoint x="140" y="979.5" as="sourcePoint" />
            <mxPoint x="40" y="979.5" as="targetPoint" />
          </mxGeometry>
        </mxCell>
        <mxCell id="znapjY-12_5NC52E_k2u-49" value="Clasificados por" style="text;html=1;strokeColor=none;fillColor=none;align=center;verticalAlign=middle;whiteSpace=wrap;rounded=0;" vertex="1" parent="WIyWlLk6GJQsqaUBKTNV-1">
          <mxGeometry x="30" y="960" width="117" height="20" as="geometry" />
        </mxCell>
        <mxCell id="znapjY-12_5NC52E_k2u-50" value="G-A" style="rhombus;whiteSpace=wrap;html=1;fillColor=#FFFFFF;" vertex="1" parent="WIyWlLk6GJQsqaUBKTNV-1">
          <mxGeometry x="137.5" y="945" width="60" height="70" as="geometry" />
        </mxCell>
        <mxCell id="znapjY-12_5NC52E_k2u-51" value="N:M" style="text;html=1;strokeColor=none;fillColor=none;align=center;verticalAlign=middle;whiteSpace=wrap;rounded=0;" vertex="1" parent="WIyWlLk6GJQsqaUBKTNV-1">
          <mxGeometry x="148" y="920" width="40" height="20" as="geometry" />
        </mxCell>
        <mxCell id="znapjY-12_5NC52E_k2u-52" value="" style="endArrow=classic;html=1;" edge="1" parent="WIyWlLk6GJQsqaUBKTNV-1">
          <mxGeometry width="50" height="50" relative="1" as="geometry">
            <mxPoint x="195" y="980" as="sourcePoint" />
            <mxPoint x="275" y="980" as="targetPoint" />
          </mxGeometry>
        </mxCell>
        <mxCell id="znapjY-12_5NC52E_k2u-53" value="Integrado" style="text;html=1;strokeColor=none;fillColor=none;align=center;verticalAlign=middle;whiteSpace=wrap;rounded=0;" vertex="1" parent="WIyWlLk6GJQsqaUBKTNV-1">
          <mxGeometry x="215" y="960" width="40" height="20" as="geometry" />
        </mxCell>
        <mxCell id="znapjY-12_5NC52E_k2u-55" value="Alumnos" style="whiteSpace=wrap;html=1;align=center;" vertex="1" parent="WIyWlLk6GJQsqaUBKTNV-1">
          <mxGeometry x="280" y="960" width="100" height="40" as="geometry" />
        </mxCell>
        <mxCell id="znapjY-12_5NC52E_k2u-56" value="" style="endArrow=classic;html=1;" edge="1" parent="WIyWlLk6GJQsqaUBKTNV-1">
          <mxGeometry width="50" height="50" relative="1" as="geometry">
            <mxPoint x="490" y="980" as="sourcePoint" />
            <mxPoint x="380" y="980" as="targetPoint" />
          </mxGeometry>
        </mxCell>
        <mxCell id="znapjY-12_5NC52E_k2u-57" value="P-A" style="rhombus;whiteSpace=wrap;html=1;fillColor=#FFFFFF;" vertex="1" parent="WIyWlLk6GJQsqaUBKTNV-1">
          <mxGeometry x="490" y="950" width="60" height="60" as="geometry" />
        </mxCell>
        <mxCell id="znapjY-12_5NC52E_k2u-58" value="N:1" style="text;html=1;strokeColor=none;fillColor=none;align=center;verticalAlign=middle;whiteSpace=wrap;rounded=0;" vertex="1" parent="WIyWlLk6GJQsqaUBKTNV-1">
          <mxGeometry x="500" y="925" width="40" height="20" as="geometry" />
        </mxCell>
        <mxCell id="znapjY-12_5NC52E_k2u-59" value="" style="endArrow=classic;html=1;" edge="1" parent="WIyWlLk6GJQsqaUBKTNV-1">
          <mxGeometry width="50" height="50" relative="1" as="geometry">
            <mxPoint x="550" y="979" as="sourcePoint" />
            <mxPoint x="630" y="979" as="targetPoint" />
          </mxGeometry>
        </mxCell>
        <mxCell id="znapjY-12_5NC52E_k2u-60" value="Prestamos" style="shape=ext;margin=3;double=1;whiteSpace=wrap;html=1;align=center;" vertex="1" parent="WIyWlLk6GJQsqaUBKTNV-1">
          <mxGeometry x="630" y="960" width="100" height="40" as="geometry" />
        </mxCell>
        <mxCell id="znapjY-12_5NC52E_k2u-61" value="" style="endArrow=classic;html=1;" edge="1" parent="WIyWlLk6GJQsqaUBKTNV-1">
          <mxGeometry width="50" height="50" relative="1" as="geometry">
            <mxPoint x="679.5" y="890" as="sourcePoint" />
            <mxPoint x="679.5" y="960" as="targetPoint" />
          </mxGeometry>
        </mxCell>
        <mxCell id="znapjY-12_5NC52E_k2u-62" value="P-U" style="rhombus;whiteSpace=wrap;html=1;fillColor=#FFFFFF;" vertex="1" parent="WIyWlLk6GJQsqaUBKTNV-1">
          <mxGeometry x="650" y="830" width="60" height="60" as="geometry" />
        </mxCell>
        <mxCell id="znapjY-12_5NC52E_k2u-63" value="" style="endArrow=classic;html=1;" edge="1" parent="WIyWlLk6GJQsqaUBKTNV-1">
          <mxGeometry width="50" height="50" relative="1" as="geometry">
            <mxPoint x="679.5" y="830" as="sourcePoint" />
            <mxPoint x="679.5" y="770" as="targetPoint" />
          </mxGeometry>
        </mxCell>
        <mxCell id="znapjY-12_5NC52E_k2u-65" value="Usuarios" style="whiteSpace=wrap;html=1;align=center;" vertex="1" parent="WIyWlLk6GJQsqaUBKTNV-1">
          <mxGeometry x="630" y="730" width="100" height="40" as="geometry" />
        </mxCell>
        <mxCell id="znapjY-12_5NC52E_k2u-66" value="N:1" style="text;html=1;strokeColor=none;fillColor=none;align=center;verticalAlign=middle;whiteSpace=wrap;rounded=0;" vertex="1" parent="WIyWlLk6GJQsqaUBKTNV-1">
          <mxGeometry x="730" y="850" width="40" height="20" as="geometry" />
        </mxCell>
        <mxCell id="znapjY-12_5NC52E_k2u-68" value="" style="endArrow=classic;html=1;" edge="1" parent="WIyWlLk6GJQsqaUBKTNV-1">
          <mxGeometry width="50" height="50" relative="1" as="geometry">
            <mxPoint x="820" y="980" as="sourcePoint" />
            <mxPoint x="730" y="980" as="targetPoint" />
          </mxGeometry>
        </mxCell>
        <mxCell id="znapjY-12_5NC52E_k2u-69" value="P-D" style="rhombus;whiteSpace=wrap;html=1;fillColor=#FFFFFF;" vertex="1" parent="WIyWlLk6GJQsqaUBKTNV-1">
          <mxGeometry x="827" y="947.5" width="60" height="65" as="geometry" />
        </mxCell>
        <mxCell id="znapjY-12_5NC52E_k2u-70" value="" style="endArrow=classic;html=1;" edge="1" parent="WIyWlLk6GJQsqaUBKTNV-1">
          <mxGeometry width="50" height="50" relative="1" as="geometry">
            <mxPoint x="887" y="979" as="sourcePoint" />
            <mxPoint x="967" y="979" as="targetPoint" />
          </mxGeometry>
        </mxCell>
        <mxCell id="znapjY-12_5NC52E_k2u-71" value="Docentes" style="whiteSpace=wrap;html=1;align=center;" vertex="1" parent="WIyWlLk6GJQsqaUBKTNV-1">
          <mxGeometry x="970" y="960" width="100" height="40" as="geometry" />
        </mxCell>
        <mxCell id="znapjY-12_5NC52E_k2u-72" value="N:1" style="text;html=1;strokeColor=none;fillColor=none;align=center;verticalAlign=middle;whiteSpace=wrap;rounded=0;" vertex="1" parent="WIyWlLk6GJQsqaUBKTNV-1">
          <mxGeometry x="837" y="910" width="40" height="20" as="geometry" />
        </mxCell>
        <mxCell id="znapjY-12_5NC52E_k2u-73" value="&lt;b&gt;&lt;i&gt;Insumos de la biblioteca&lt;/i&gt;&lt;/b&gt;" style="text;html=1;strokeColor=none;fillColor=none;align=center;verticalAlign=middle;whiteSpace=wrap;rounded=0;" vertex="1" parent="WIyWlLk6GJQsqaUBKTNV-1">
          <mxGeometry y="260" width="160" height="20" as="geometry" />
        </mxCell>
      </root>
    </mxGraphModel>
  </diagram>
</mxfile>
